<svg width="30" height="30" viewBox="0 0 30 30" fill="none" xmlns="http://www.w3.org/2000/svg">
<g id="24 / basic / heart">
<path id="icon" fill-rule="evenodd" clip-rule="evenodd" d="M20.6915 2.50002C18.8819 2.5 17.7155 2.71558 16.3783 3.37009C15.8833 3.61241 15.4188 3.90424 14.9875 4.2447C14.5727 3.92333 14.1268 3.6449 13.6523 3.41017C12.2891 2.73597 11.0628 2.5 9.31818 2.5C4.64555 2.5 1.25 6.37158 1.25 11.3998C1.25 15.1972 3.36729 18.8654 7.31105 22.4124C9.38112 24.2742 12.0242 26.1167 13.917 27.0968L15 27.6577L16.083 27.0968C17.9758 26.1167 20.6189 24.2742 22.6889 22.4124C26.6327 18.8654 28.75 15.1972 28.75 11.3998C28.75 6.42481 25.3224 2.5192 20.6915 2.50002ZM26.25 11.3998C26.25 14.3749 24.4827 17.4366 21.0172 20.5536C19.1277 22.2529 16.6987 23.9512 15 24.8421C13.3013 23.9512 10.8723 22.2529 8.98284 20.5536C5.51728 17.4366 3.75 14.3749 3.75 11.3998C3.75 7.68465 6.10455 5 9.31818 5C10.7054 5 11.5602 5.16449 12.5439 5.65105C13.125 5.93846 13.6386 6.31796 14.0832 6.79221L15.0029 7.77338L15.9143 6.78444C16.3689 6.29119 16.89 5.90305 17.4774 5.61553C18.4323 5.14812 19.2338 5 20.6864 5.00001C23.8603 5.01316 26.25 7.7362 26.25 11.3998Z" fill="black"/>
</g>
</svg>
