<svg width="43" height="43" viewBox="0 0 43 43" fill="none" xmlns="http://www.w3.org/2000/svg">
<g id="24 / music / player-play-circle">
<path id="icon" fill-rule="evenodd" clip-rule="evenodd" d="M41.2084 21.5C41.2084 32.3846 32.3847 41.2083 21.5001 41.2083C10.6155 41.2083 1.79175 32.3846 1.79175 21.5C1.79175 10.6153 10.6155 1.79163 21.5001 1.79163C32.3847 1.79163 41.2084 10.6153 41.2084 21.5ZM5.37508 21.5C5.37508 30.4056 12.5945 37.625 21.5001 37.625C30.4057 37.625 37.6251 30.4056 37.6251 21.5C37.6251 12.5944 30.4057 5.37496 21.5001 5.37496C12.5945 5.37496 5.37508 12.5944 5.37508 21.5ZM14.3334 30.4583V12.5416C14.3334 11.1344 15.8813 10.2765 17.0747 11.0223L31.408 19.9806C32.5308 20.6824 32.5308 22.3176 31.408 23.0193L17.0747 31.9776C15.8813 32.7235 14.3334 31.8655 14.3334 30.4583ZM17.9167 15.7742L27.0779 21.4999L17.9167 27.2256V15.7742Z" fill="black"/>
</g>
</svg>
