<svg width="43" height="43" viewBox="0 0 43 43" fill="none" xmlns="http://www.w3.org/2000/svg">
<g id="24 / music / player-pause-circle">
<path id="icon" fill-rule="evenodd" clip-rule="evenodd" d="M1.79175 21.5C1.79175 32.3846 10.6155 41.2083 21.5001 41.2083C32.3847 41.2083 41.2084 32.3846 41.2084 21.5C41.2084 10.6153 32.3847 1.79163 21.5001 1.79163C10.6155 1.79163 1.79175 10.6153 1.79175 21.5ZM37.625 21.4999C37.625 30.4055 30.4056 37.6249 21.5 37.6249C12.5945 37.6249 5.37505 30.4055 5.37505 21.4999C5.37505 12.5944 12.5945 5.37495 21.5 5.37495C30.4056 5.37495 37.625 12.5944 37.625 21.4999ZM16.125 12.5416H19.7084V30.4583H16.125V12.5416ZM26.8751 12.5416H23.2917V30.4583H26.8751V12.5416Z" fill="black"/>
</g>
</svg>
